<?xml version="1.0" encoding="UTF-8"?>
<svg id="Layer_2" data-name="Layer 2" xmlns="http://www.w3.org/2000/svg" viewBox="0 0 167.46 214.33">
  <g id="Layer_1-2" data-name="Layer 1">
    <path id="o" d="M7.27,159.53c-7.44-17.82,28.22-31.19,36-53.1,7.93-22.27,6.25-89.64,25.1-103.7,18.85-14.06,21.29,30.69,48.12,27,35.15-4.83,56.75,4.28,30.26,56.34-8.67,17.04,22.01,11.59,20.67,35.2-2.63,46.09-46.97,123.87-82.47,60.44-11.58-20.69-46.76,36.03-73.6,32.45-26.84-3.59,3.37-36.82-4.07-54.64ZM70.91,158.12c9.72-7.12,25.15-18.41,31.93-8.64,34.58,49.88,22.09-6.51,22.17-33.86.05-16.16,5.41-40.27,1.91-49.39-3.5-9.12-10.22-1.6-22.16-3.2s-22.58,1.31-31.94,8.71c-9.35,7.4-.08,28.23-5.52,43.45-5.44,15.22-14.84,18.41-19.56,26.92-20.64,37.26-12.56,42.17,23.17,16Z"/>
  </g>
</svg>