<?xml version="1.0" encoding="UTF-8"?>
<svg id="Layer_1" data-name="Layer 1" xmlns="http://www.w3.org/2000/svg" viewBox="0 0 559.63 240.93">
  <path id="n" d="M101.81,102.17c1.54-7,1.75-12.37.61-16.11-1.95-6.84-7.73-10.25-17.33-10.25-11.8,0-20.96,5-27.47,15.01-3.42,5.29-5.98,12.04-7.69,20.26l-15.26,72.02H0L28.2,50.29h33.57l-4.15,19.41c5.94-6.84,11.23-11.76,15.87-14.77,8.3-5.37,17.94-8.06,28.93-8.06,13.75,0,24.23,3.6,31.43,10.8s9.05,19.15,5.55,35.83l-19.04,89.6h-35.64l17.09-80.93Z"/>
  <path id="o" d="M118.46,159.53c-7.44-17.82,28.22-31.19,36-53.1,7.93-22.27,6.25-89.64,25.1-103.7,18.85-14.06,21.29,30.69,48.12,27,35.15-4.83,56.75,4.28,30.26,56.34-8.67,17.04,22.01,11.59,20.67,35.2-2.63,46.09-46.97,123.87-82.47,60.44-11.58-20.69-46.76,36.03-73.6,32.45-26.84-3.59,3.37-36.82-4.07-54.64ZM182.09,158.12c9.72-7.12,25.15-18.41,31.93-8.64,34.58,49.88,22.09-6.51,22.17-33.86.05-16.16,5.41-40.27,1.91-49.39-3.5-9.12-10.22-1.6-22.16-3.2s-22.58,1.31-31.94,8.71c-9.35,7.4-.08,28.23-5.52,43.45-5.44,15.22-14.84,18.41-19.56,26.92-20.64,37.26-12.56,42.17,23.17,16Z"/>
  <path id="i" d="M293.45,50.05h35.28l-28.2,133.06h-35.28l28.2-133.06ZM337.48,10.47c-.53,2.36-4.45,23.71-5.33,23.71h-35.28c.59,0,3.43-15.24,3.71-16.51.56-2.48.8-4.93,2-6.97"/>
  <path id="s" d="M354.4,83.76c-.9,3.99.2,6.88,3.3,8.67,3.01,1.87,14.4,5.09,34.18,9.64,13.1,3.26,22.42,8.18,27.95,14.77,5.45,6.67,7.12,15.01,5,25.02-2.85,13.18-10.05,23.95-21.61,32.29-11.56,8.34-27.59,12.51-48.1,12.51s-35.42-4.42-43.52-13.24c-8.1-8.83-10.72-20.08-7.87-33.75h35.28c-.57,6.19.12,10.58,2.08,13.18,3.25,4.64,10.7,6.96,22.34,6.96,6.84,0,12.49-1.02,16.97-3.05,4.47-2.03,7.16-5.08,8.06-9.16.81-3.91-.2-6.88-3.05-8.91-2.85-2.03-14.2-5.53-34.06-10.5-14.24-3.74-23.85-8.42-28.81-14.04-5.05-5.53-6.43-13.51-4.15-23.93,2.6-12.29,9.66-22.85,21.18-31.68,11.52-8.83,26.02-13.24,43.52-13.24s29.42,3.32,38.45,9.95c9.03,6.63,12.61,18.09,10.74,34.36h-34.79c.41-4.47-.12-8.01-1.59-10.62-2.85-4.72-8.87-7.08-18.07-7.08-7.57,0-13.2,1.18-16.91,3.54-3.7,2.36-5.88,5.13-6.53,8.3Z"/>
  <path id="y" d="M446.71,192.96l-19.29-138.92h38.7l8.18,98.14,48.34-98.14h36.99l-73.49,130.86c-14.16,25.23-24.43,40.87-30.82,46.94s-17.27,9.09-32.65,9.09c-3.09,0-5.58-.02-7.45-.06-1.87-.04-4.64-.18-8.3-.43l5.86-27.83,4.39.24c3.34.16,6.59.04,9.77-.37,3.17-.41,5.98-1.34,8.42-2.81,2.36-1.38,4.88-4.27,7.57-8.67s3.95-7.08,3.78-8.06Z"/>
</svg>